<?xml version="1.0" encoding="UTF-8"?>
<svg version="1.1" xmlns="http://www.w3.org/2000/svg" width="80" height="80">
<path d="M0 0 C8.33899794 6.16686375 15.71857894 14.78601277 17.359375 25.3046875 C18.50510471 38.15595577 17.61032682 48.90461499 9.734375 59.5546875 C3.13228181 67.25917102 -5.28279915 73.55956187 -15.61230469 74.48046875 C-29.19073434 75.32123839 -39.71107681 73.68887108 -50.34765625 64.57421875 C-59.33782262 55.67594505 -62.88442548 46.78294682 -63.078125 34.3671875 C-63.03267618 27.28654924 -62.24337186 21.53068441 -58.640625 15.3046875 C-58.228125 14.54027344 -57.815625 13.77585937 -57.390625 12.98828125 C-52.2900009 4.4244493 -44.42082197 -2.0379771 -34.890625 -5.0703125 C-22.77370984 -7.40048849 -10.54405658 -6.76940911 0 0 Z " fill="#F8A034" transform="translate(62.640625,5.6953125)"/>
<path d="M0 0 C6.70518586 -0.19818283 12.65176798 -0.30844801 19 2 C18.67 2.99 18.34 3.98 18 5 C15.36 5 12.72 5 10 5 C9.67 6.65 9.34 8.3 9 10 C8.34 8.68 7.68 7.36 7 6 C3.65747276 5.92572162 1.1964086 5.93453047 -2 7 C-2.33 9.64 -2.66 12.28 -3 15 C-3.33 15 -3.66 15 -4 15 C-4.125 8.375 -4.125 8.375 -3 5 C-4.65 5 -6.3 5 -8 5 C-4.77208445 2.8480563 -3.71599191 2.79913557 0 3 C0 2.01 0 1.02 0 0 Z M19 0 C19.99 0.495 19.99 0.495 21 1 C20.01 1.495 20.01 1.495 19 2 C19 1.34 19 0.68 19 0 Z " fill="#FAA836" transform="translate(34,37)"/>
<path d="M0 0 C0.66 0 1.32 0 2 0 C1.34 1.65 0.68 3.3 0 5 C6.93 5 13.86 5 21 5 C21.33 6.65 21.66 8.3 22 10 C21.34 10 20.68 10 20 10 C19.67 9.34 19.34 8.68 19 8 C17.35 8 15.7 8 14 8 C13.67 8.66 13.34 9.32 13 10 C9.04 10 5.08 10 1 10 C0.67 9.34 0.34 8.68 0 8 C-0.763125 8.165 -1.52625 8.33 -2.3125 8.5 C-5 9 -5 9 -8 9 C-7.1875 7.0625 -7.1875 7.0625 -6 5 C-5.01 4.67 -4.02 4.34 -3 4 C-1.99357052 2.67151309 -0.99307821 1.33849671 0 0 Z " fill="#9F1121" transform="translate(33,26)"/>
<path d="M0 0 C6.0546875 -0.1953125 6.0546875 -0.1953125 8 0 C10 2 10 2 10.375 4.875 C10 8 10 8 8.5 10.375 C4.86748926 12.73613198 2.28156703 12.2854378 -2 12 C-1.34 8.04 -0.68 4.08 0 0 Z " fill="#BC4128" transform="translate(55,42)"/>
<path d="M0 0 C2.31 0 4.62 0 7 0 C8.0625 1.875 8.0625 1.875 9 4 C8.67 4.66 8.34 5.32 8 6 C7.835 6.845625 7.67 7.69125 7.5 8.5625 C7 11 7 11 6 12 C3.32941149 12.14115161 0.67567762 12.04247107 -2 12 C-1.34 8.04 -0.68 4.08 0 0 Z " fill="#C9582B" transform="translate(44,42)"/>
<path d="M0 0 C0 0.66 0 1.32 0 2 C3.96 2 7.92 2 12 2 C12.33 1.01 12.66 0.02 13 -1 C14.65 -1 16.3 -1 18 -1 C18.33 -0.01 18.66 0.98 19 2 C19.99 1.67 20.98 1.34 22 1 C22 1.66 22 2.32 22 3 C21.01 3 20.02 3 19 3 C19 3.66 19 4.32 19 5 C18.0925 4.835 17.185 4.67 16.25 4.5 C10.09612394 3.62087485 3.40671547 3.28305698 -2.69140625 4.56640625 C-5.67352868 5.12650031 -7.31756576 4.30289663 -10 3 C-7.7846105 -1.43077901 -4.3377361 -1.20492669 0 0 Z " fill="#C34C29" transform="translate(34,34)"/>
<path d="M0 0 C0.33 1.32 0.66 2.64 1 4 C0.01 4 -0.98 4 -2 4 C-2 3.01 -2 2.02 -2 1 C-4.52259061 2.97420135 -4.9929808 3.96745642 -5.6875 7.1875 C-5.790625 8.115625 -5.89375 9.04375 -6 10 C-3.94729537 8.15811388 -3.94729537 8.15811388 -3 6 C-2.01 6.33 -1.02 6.66 0 7 C-0.33 8.65 -0.66 10.3 -1 12 C-4.375 12.125 -4.375 12.125 -8 12 C-10 10 -10 10 -10.375 7.125 C-10 4 -10 4 -8.375 1.625 C-5.3962104 -0.4131192 -3.53677664 -0.32152515 0 0 Z " fill="#A11522" transform="translate(41,42)"/>
<path d="M0 0 C1.65 0 3.3 0 5 0 C5 1.98 5 3.96 5 6 C5.66 6 6.32 6 7 6 C6.34 7.98 5.68 9.96 5 12 C4.01 12 3.02 12 2 12 C1.67 11.34 1.34 10.68 1 10 C0.67 10.66 0.34 11.32 0 12 C-0.66 12 -1.32 12 -2 12 C-1.34 8.04 -0.68 4.08 0 0 Z " fill="#A92024" transform="translate(17,42)"/>
<path d="M0 0 C1.43489809 -0.13536774 2.87347107 -0.23217143 4.3125 -0.3125 C5.11300781 -0.37050781 5.91351563 -0.42851562 6.73828125 -0.48828125 C7.48464844 -0.32714844 8.23101562 -0.16601562 9 0 C9.99 1.65 10.98 3.3 12 5 C7.38 5 2.76 5 -2 5 C-1.34 3.35 -0.68 1.7 0 0 Z " fill="#DE7B30" transform="translate(35,26)"/>
<path d="M0 0 C1.65 0 3.3 0 5 0 C4.34 3.63 3.68 7.26 3 11 C1.35 11.33 -0.3 11.66 -2 12 C-1.814375 11.071875 -1.62875 10.14375 -1.4375 9.1875 C-0.75876119 5.98656229 -0.75876119 5.98656229 -2 3 C-1.34 2.01 -0.68 1.02 0 0 Z " fill="#A51B23" transform="translate(26,42)"/>
<path d="M0 0 C0.66 0 1.32 0 2 0 C2 0.99 2 1.98 2 3 C3.65 2.67 5.3 2.34 7 2 C6.67 4.31 6.34 6.62 6 9 C4.35 8.01 2.7 7.02 1 6 C0.67 6.99 0.34 7.98 0 9 C-0.66 9 -1.32 9 -2 9 C-2.25 3.375 -2.25 3.375 0 0 Z " fill="#D76A2D" transform="translate(37,43)"/>
<path d="M0 0 C0.99 0 1.98 0 3 0 C2.125 7.75 2.125 7.75 1 10 C0.01 10 -0.98 10 -2 10 C-2.25 3.375 -2.25 3.375 0 0 Z " fill="#A11422" transform="translate(56,43)"/>
<path d="M0 0 C1.32 0.33 2.64 0.66 4 1 C3.34 3.97 2.68 6.94 2 10 C0.68 9.67 -0.64 9.34 -2 9 C-1.34 6.03 -0.68 3.06 0 0 Z " fill="#9A0820" transform="translate(44,43)"/>
<path d="M0 0 C0.99 0.33 1.98 0.66 3 1 C2.67 3.64 2.34 6.28 2 9 C0.68 9.33 -0.64 9.66 -2 10 C-1.34 6.7 -0.68 3.4 0 0 Z " fill="#9A0920" transform="translate(50,43)"/>
<path d="M0 0 C1.65 0 3.3 0 5 0 C5.33 0.99 5.66 1.98 6 3 C6.99 2.67 7.98 2.34 9 2 C9 2.66 9 3.32 9 4 C8.01 4 7.02 4 6 4 C6 4.66 6 5.32 6 6 C4.35 6 2.7 6 1 6 C1.33 4.68 1.66 3.36 2 2 C0.7763932 1.9254644 0.7763932 1.9254644 -1 3 C-0.67 2.01 -0.34 1.02 0 0 Z " fill="#D66E2E" transform="translate(47,33)"/>
<path d="M0 0 C1.32 0.33 2.64 0.66 4 1 C3.67 2.65 3.34 4.3 3 6 C0.69 6 -1.62 6 -4 6 C-3.34 5.38125 -2.68 4.7625 -2 4.125 C0.2284549 2.24362573 0.2284549 2.24362573 0 0 Z " fill="#A82023" transform="translate(37,48)"/>
<path d="M0 0 C0.66 0 1.32 0 2 0 C2 0.99 2 1.98 2 3 C2.99 3.33 3.98 3.66 5 4 C3.68 4 2.36 4 1 4 C1.33 4.99 1.66 5.98 2 7 C1.01 7.33 0.02 7.66 -1 8 C-1.125 2.25 -1.125 2.25 0 0 Z " fill="#F4A836" transform="translate(36,44)"/>
<path d="M0 0 C0 0.99 0 1.98 0 3 C-0.66 3 -1.32 3 -2 3 C-2.66 4.32 -3.32 5.64 -4 7 C-4.66 6.01 -5.32 5.02 -6 4 C-2.25 0 -2.25 0 0 0 Z " fill="#FAAA2E" transform="translate(15,9)"/>
</svg>
